<?xml version="1.0" encoding="utf-8"?>
<!-- Generator: Adobe Illustrator 16.0.0, SVG Export Plug-In . SVG Version: 6.00 Build 0)  -->
<!DOCTYPE svg PUBLIC "-//W3C//DTD SVG 1.1//EN" "http://www.w3.org/Graphics/SVG/1.1/DTD/svg11.dtd">
<svg version="1.1" id="Layer_1" xmlns="http://www.w3.org/2000/svg" xmlns:xlink="http://www.w3.org/1999/xlink" x="0px" y="0px"
	 width="232.62px" height="52.82px" viewBox="0 0 232.62 52.82" enable-background="new 0 0 232.62 52.82" xml:space="preserve">
<g id="Layer_x0020_1">
	<path fill="#373435" d="M70.738,17.396v7.164h4.447v3.604h-4.447v7.904h5.013v3.604h-8.934V13.791h8.934v3.604h-5.013V17.396z
		 M86.148,26.632L84.33,39.674h-4.133l-3.82-25.881h3.896l2.167,17.137l2.165-17.137h3.116l2.167,17.137l2.165-17.137h3.896
		l-3.82,25.881h-4.132L86.148,26.632z M101.952,24.207l3.211,1.729c0.505,0.287,1.067,0.604,1.529,0.956
		c0.32,0.243,0.578,0.545,0.764,0.903c0.256,0.494,0.276,1.393,0.276,1.939v5.4c0,2.906-1.399,4.539-4.361,4.539h-2.082
		c-3.123,0-4.326-1.992-4.326-4.928v-1.537h3.921v1.643c0,0.857,0.405,1.217,1.253,1.217h0.601c0.807,0,1.075-0.451,1.075-1.217
		v-4.307c0-0.207-0.021-0.602-0.192-0.754c-0.256-0.225-0.588-0.428-0.875-0.604l-3.205-1.795c-0.522-0.279-1.119-0.608-1.579-0.983
		c-0.365-0.299-0.619-0.681-0.771-1.127c-0.182-0.528-0.227-1.139-0.227-1.692v-5.19c0-2.897,1.339-4.608,4.326-4.608h2.117
		c2.986,0,4.326,1.711,4.326,4.608v2.737h-3.921v-2.491c0-0.846-0.359-1.252-1.215-1.252h-0.53c-0.848,0-1.181,0.423-1.181,1.252
		v4.202c0,0.206,0.021,0.603,0.192,0.753c0.254,0.223,0.586,0.427,0.875,0.605V24.207z"/>
	<path fill="#4AEEBC" d="M131.789,14.324h-2.811l-4.5,18.993h-0.469l-0.303-18.993h-2.18l-4.498,18.993h-0.47l-0.302-18.993h-2.811
		l0.923,24.815h3.21l4.082-16.331l0.512,16.331h3.211L131.789,14.324z M131.564,39.139h2.855l2.74-24.815h-2.855L131.564,39.139z
		 M143.795,14.324h-2.924l-2.74,24.815h2.855l1.996-18.058l2.705,13.236l-0.531,4.822h2.855l2.74-24.815h-2.855l-1.527,13.817
		l-2.576-13.817H143.795z M151.723,39.139h6.336c2.355,0,3.896-0.934,4.168-3.406l1.857-16.803c0.336-3.048-0.912-4.606-3.99-4.606
		h-5.631L151.723,39.139z M154.859,36.6l2.182-19.738h2.631c1.301,0,1.684,0.904,1.553,2.103l-1.795,16.24
		c-0.109,0.996-0.832,1.395-1.762,1.395H154.859z"/>
	<polygon fill="#4AEEBC" points="222.654,14.324 219.395,14.324 216.652,39.139 219.504,39.139 220.982,22.577 221.469,22.521 
		222.688,34.551 224.869,34.551 228.744,22.521 229.221,22.577 227.037,39.139 229.889,39.139 232.631,14.324 229.371,14.324 
		224.254,30.246 	"/>
	<path fill="#4AEEBC" d="M194.838,36.6c-1.141,0-1.719-0.596-1.59-1.748l1.793-16.239c0.125-1.137,0.807-1.748,1.941-1.748h1.59
		c1.141,0,1.719,0.596,1.592,1.748l-1.795,16.239c-0.117,1.063-0.693,1.748-1.801,1.748H194.838z M193.746,39.139h3.18
		c2.68,0,3.986-1.424,4.275-4.041l1.846-16.698c0.287-2.603-0.656-4.076-3.344-4.076h-3.248c-2.688,0-3.957,1.473-4.244,4.076
		l-1.844,16.698c-0.289,2.617,0.701,4.041,3.381,4.041H193.746z"/>
	<path fill="#4AEEBC" d="M207.715,26.539l1.068-9.675h2.492c1.299,0,1.684,0.904,1.551,2.103l-0.604,5.471
		c-0.133,1.199-0.717,2.103-2.018,2.103h-2.49V26.539z M206.207,14.324l-2.74,24.815h2.857l1.131-10.238h2.527l1.094,10.238h2.666
		l-1.186-10.445l0.209-0.088c1.617-0.678,2.125-2.442,2.291-3.957l0.689-6.249c0.277-2.505-0.521-4.076-3.166-4.076h-6.371H206.207z
		"/>
	<polygon fill="#4AEEBC" points="189.895,16.862 190.174,14.324 180.824,14.324 180.543,16.862 183.789,16.862 181.33,39.139 
		184.186,39.139 186.648,16.862 	"/>
	<path fill="#4AEEBC" d="M175.15,20.605h2.855l0.244-2.204c0.287-2.602-0.656-4.076-3.344-4.076h-2.117
		c-2.688,0-3.955,1.474-4.242,4.076l-0.574,5.19c-0.055,0.491-0.078,1.053,0.029,1.519c0.082,0.351,0.242,0.65,0.508,0.885
		c0.391,0.351,0.93,0.665,1.395,0.927l3.021,1.806c0.297,0.195,0.627,0.418,0.881,0.662c0.285,0.275,0.289,0.76,0.246,1.154
		l-0.477,4.307c-0.119,1.063-0.693,1.748-1.803,1.748h-0.6c-1.143,0-1.719-0.596-1.592-1.748l0.121-1.109h-2.855l-0.111,1.004
		c-0.291,2.639,0.488,4.395,3.309,4.395h2.082c2.664,0,3.982-1.393,4.271-4.006l0.598-5.4c0.047-0.432,0.129-1.305-0.029-1.697
		c-0.117-0.287-0.297-0.525-0.533-0.723c-0.404-0.336-0.916-0.641-1.363-0.912l-3.027-1.733l-0.008-0.004
		c-0.297-0.194-0.627-0.417-0.881-0.663c-0.285-0.274-0.289-0.759-0.244-1.153l0.463-4.202c0.125-1.125,0.764-1.785,1.912-1.785
		h0.529c1.154,0,1.678,0.642,1.553,1.785L175.15,20.605z"/>
	<path fill="#373435" d="M34.545,27.214c-5.174,1.243-13.642,2.169-18.351,4.567c-0.84,0.771-1.967,1.336-0.739,2.883
		c0.654,0.824,2.145,1.574,3.666,2.152c2.652-2.459,8.583-3.42,10.965-4.059c3.692-0.988,6.065-2.033,7.537-2.852
		c-0.196-0.635-0.894-1.609-3.077-2.694V27.214z M9.58,26.108c1.428-6.573,9.543-9.686,16.271-11.475
		c4.158-1.106,11.619-4.608,13.472-8.602c2.559,10.275-7.564,12.178-15.699,13.867c-2.966,0.615-8.606,2.169-11.386,4.951
		c-0.231,0.904-0.607,2.13,0.526,3.122c0.477,0.42,1.311,0.898,2.235,1.326c0.832-0.652,1.74-1.234,2.586-1.742
		c6.86-4.091,22.388-5.028,25.295-10.162c1.921,4.617-2.833,8.199-6.767,9.398c1.68,0.194,3.5,0.629,3.632,1.602
		c0.01-0.012,0.015-0.016,0.015-0.016s1.015,2.367-2.229,4.529c-3.958,2.639-13.73,2.477-17.8,5.184
		c-0.146,0.098-0.285,0.199-0.415,0.305c-0.175,0.459-0.239,1.051,0.289,1.49c0.997,0.832,3.707,1.449,3.707,1.449l1.715,0.354
		c0,0-1.866,0.162-3.529-0.025c-1.664-0.188-3.057-0.549-3.554-1.313c-0.313-0.549-0.13-1.498,0.099-2.051
		c-3.586-0.391-5.038-1.424-5.556-2.604c-0.877-1.736-0.386-3.303,0.702-4.658c-1.337-0.223-2.129-0.686-2.567-1.248
		c0.026,0.094,0.049,0.135,0.049,0.135S9.093,28.33,9.576,26.11L9.58,26.108z M21.837,44.031c3.686-1.451,4.057-0.551,8.396-2.063
		c1.116-0.391,1.94-0.826,2.548-1.258c0.157-0.477,0.302-1.268-0.21-1.797c-0.774-0.803-1.081-1.434-6.387-2.426
		c0,0,4.225-0.203,6.284,0.482c2.06,0.688,2.138,1.508,2.138,1.508c0.491,1.252,0.142,2.236-0.487,3.17
		c-3.244,4.795-11.685,2.803-15.003,5.787c0,0,0.537-2.543,2.722-3.402V44.031z M52.816,26.731
		c0-14.584-11.823-26.408-26.408-26.408C11.823,0.323,0,12.146,0,26.731c0,14.585,11.823,26.408,26.408,26.408
		C40.993,53.139,52.816,41.316,52.816,26.731z"/>
</g>
</svg>
