<?xml version="1.0" encoding="UTF-8"?>
<!DOCTYPE svg PUBLIC "-//W3C//DTD SVG 1.1//EN" "http://www.w3.org/Graphics/SVG/1.1/DTD/svg11.dtd">
<!-- Creator: CorelDRAW X6 -->
<svg xmlns="http://www.w3.org/2000/svg" xml:space="preserve" width="38.2311in" height="8.68007in" version="1.1" style="shape-rendering:geometricPrecision; text-rendering:geometricPrecision; image-rendering:optimizeQuality; fill-rule:evenodd; clip-rule:evenodd"
viewBox="0 0 112722 25593"
 xmlns:xlink="http://www.w3.org/1999/xlink">
 <defs>
  <style type="text/css">
   <![CDATA[
    .fil0 {fill:#373435}
    .fil1 {fill:#4AEEBC}
   ]]>
  </style>
 </defs>
 <g id="Layer_x0020_1">
  <metadata id="CorelCorpID_0Corel-Layer"/>
  <path class="fil0" d="M34277 8273l0 3471 2155 0 0 1746 -2155 0 0 3830 2429 0 0 1746 -4329 0 0 -12540 4329 0 0 1746 -2429 0zm7467 4475l-881 6319 -2003 0 -1851 -12540 1888 0 1050 8303 1049 -8303 1510 0 1050 8303 1049 -8303 1888 0 -1851 12540 -2002 0 -896 -6319zm7658 -1175l1556 838c245,139 517,293 741,463 155,118 280,264 370,437 124,240 134,675 134,940l0 2617c0,1408 -678,2199 -2113,2199l-1009 0c-1513,0 -2096,-965 -2096,-2387l0 -745 1900 0 0 796c0,415 196,589 607,589l291 0c391,0 521,-218 521,-589l0 -2087c0,-100 -10,-292 -93,-365 -124,-109 -285,-208 -424,-293l-1553 -870c-253,-135 -542,-294 -765,-476 -177,-145 -300,-330 -374,-546 -88,-256 -110,-552 -110,-820l0 -2515c0,-1404 649,-2233 2096,-2233l1026 0c1447,0 2096,829 2096,2233l0 1326 -1900 0 0 -1207c0,-410 -174,-607 -589,-607l-257 0c-411,0 -572,205 -572,607l0 2036c0,100 10,292 93,365 123,108 284,207 424,293z"/>
  <path class="fil1" d="M63859 6784l-1362 0 -2180 9203 -227 0 -147 -9203 -1056 0 -2180 9203 -227 0 -146 -9203 -1362 0 447 12024 1555 0 1978 -7913 248 7913 1556 0 3103 -12024zm-109 12024l1384 0 1328 -12024 -1384 0 -1328 12024zm5927 -12024l-1417 0 -1328 12024 1384 0 967 -8750 1311 6413 -258 2337 1384 0 1328 -12024 -1384 0 -740 6695 -1248 -6695zm3841 12024l3070 0c1142,0 1888,-452 2020,-1650l900 -8142c163,-1477 -442,-2232 -1934,-2232l-2728 0 -1328 12024zm1520 -1230l1057 -9564 1275 0c630,0 816,438 752,1019l-869 7869c-53,483 -404,676 -854,676l-1361 0z"/>
  <polygon class="fil1" points="107888,6784 106309,6784 104980,18808 106362,18808 107078,10783 107314,10756 107904,16585 108961,16585 110839,10756 111070,10783 110012,18808 111394,18808 112722,6784 111143,6784 108663,14499 "/>
  <path class="fil1" d="M94410 17578c-553,0 -833,-289 -771,-847l869 -7869c61,-551 391,-847 941,-847l770 0c553,0 833,289 771,847l-869 7869c-57,515 -336,847 -873,847l-838 0zm-529 1230l1540 0c1299,0 1932,-690 2072,-1958l894 -8091c139,-1261 -318,-1975 -1620,-1975l-1574 0c-1302,0 -1917,714 -2056,1975l-894 8091c-140,1268 340,1958 1639,1958z"/>
  <path class="fil1" d="M100649 12703l518 -4688 1207 0c630,0 816,438 752,1019l-293 2651c-64,581 -347,1019 -977,1019l-1207 0zm-730 -5919l-1328 12024 1384 0 548 -4961 1225 0 530 4961 1292 0 -575 -5061 102 -43c783,-328 1029,-1183 1110,-1917l334 -3028c134,-1214 -253,-1975 -1534,-1975l-3087 0z"/>
  <polygon class="fil1" points="92014,8014 92150,6784 87619,6784 87483,8014 89056,8014 87864,18808 89248,18808 90441,8014 "/>
  <path class="fil1" d="M84870 9828l1384 0 118 -1068c139,-1261 -318,-1975 -1620,-1975l-1026 0c-1302,0 -1917,714 -2056,1975l-278 2515c-26,238 -38,510 14,736 40,170 118,315 246,429 190,170 451,322 676,449l1464 875c144,94 304,202 427,321 138,133 140,368 119,559l-231 2087c-57,515 -336,847 -873,847l-291 0c-553,0 -833,-289 -771,-847l59 -538 -1384 0 -54 487c-141,1278 237,2129 1603,2129l1009 0c1291,0 1930,-675 2070,-1941l289 -2617c23,-209 63,-632 -14,-822 -57,-139 -144,-255 -258,-350 -196,-163 -444,-311 -661,-442l-1467 -840 -3 -2c-144,-94 -304,-202 -427,-321 -138,-133 -140,-368 -119,-559l225 -2036c60,-545 370,-865 926,-865l257 0c559,0 813,311 752,865l-105 949z"/>
  <path class="fil0" d="M16740 13030c-2507,602 -6610,1051 -8892,2213 -407,374 -953,647 -358,1397 317,399 1039,763 1776,1043 1285,-1192 4159,-1657 5313,-1967 1789,-479 2939,-985 3652,-1382 -95,-307 -433,-779 -1491,-1305zm-12097 -536c692,-3185 4624,-4693 7884,-5560 2015,-536 5630,-2233 6528,-4168 1240,4979 -3665,5901 -7607,6719 -1437,298 -4170,1051 -5517,2399 -112,438 -294,1032 255,1513 231,203 635,435 1083,642 403,-316 843,-598 1253,-844 3324,-1982 10848,-2436 12257,-4924 931,2237 -1373,3973 -3279,4554 814,94 1696,305 1760,776 5,-6 7,-8 7,-8 0,0 492,1147 -1080,2195 -1918,1279 -6653,1200 -8625,2512 -71,47 -138,96 -201,147 -85,223 -116,510 140,723 483,403 1796,702 1796,702l831 171c0,0 -904,79 -1710,-12 -806,-91 -1481,-266 -1722,-636 -152,-266 -63,-726 48,-994 -1738,-189 -2441,-690 -2692,-1261 -425,-842 -187,-1601 340,-2258 -648,-107 -1032,-332 -1244,-604 13,45 24,65 24,65 0,0 -765,-772 -531,-1848zm5939 8685c1786,-703 1966,-267 4068,-1000 541,-189 940,-400 1235,-609 76,-231 146,-614 -102,-871 -375,-389 -524,-694 -3095,-1175 0,0 2047,-99 3045,234 998,333 1036,730 1036,730 238,607 69,1084 -236,1536 -1572,2324 -5662,1358 -7270,2804 0,0 260,-1232 1319,-1648zm15011 -8383c0,-7067 -5729,-12796 -12796,-12796 -7067,0 -12796,5729 -12796,12796 0,7067 5729,12796 12796,12796 7067,0 12796,-5729 12796,-12796z"/>
 </g>
</svg>
