<?xml version="1.0" encoding="UTF-8"?>
<!DOCTYPE svg PUBLIC "-//W3C//DTD SVG 1.1//EN" "http://www.w3.org/Graphics/SVG/1.1/DTD/svg11.dtd">
<!-- Creator: CorelDRAW X6 -->
<svg xmlns="http://www.w3.org/2000/svg" xml:space="preserve" width="4.06848in" height="1.7091in" version="1.1" style="shape-rendering:geometricPrecision; text-rendering:geometricPrecision; image-rendering:optimizeQuality; fill-rule:evenodd; clip-rule:evenodd"
viewBox="0 0 11304 16466"
 xmlns:xlink="http://www.w3.org/1999/xlink">
 <defs>
  <style type="text/css">
   <![CDATA[
    .fil2 {fill:#273631}
    .fil0 {fill:#4B4B4D}
    .fil1 {fill:#4AEEBC}
   ]]>
  </style>
 </defs>
 <g id="Layer_x0020_1">
  <metadata id="CorelCorpID_0Corel-Layer"/>
  <path class="fil0" d="M3796 13785l0 295 429 0 0 348 -429 0 0 763 484 0 0 348 -862 0 0 -1522c110,-94 240,-170 378,-231zm1487 494l-175 1259 -399 0 -288 -1949c118,-27 236,-50 355,-72l149 1177 155 -1228c134,-21 267,-41 401,-61l163 1289 169 -1340c14,-2 28,-5 42,-7 112,-19 224,-38 338,-61l-332 2252 -399 0 -179 -1259zm1525 -234l310 167c49,28 103,58 148,92 31,23 56,53 74,87 25,48 27,135 27,187l0 521c0,281 -135,438 -421,438l-201 0c-301,0 -418,-192 -418,-475l0 -148 379 0 0 159c0,83 39,117 121,117l58 0c78,0 104,-43 104,-117l0 -416c0,-20 -2,-58 -18,-73 -25,-22 -57,-42 -84,-58l-309 -173c-50,-27 -108,-59 -152,-95 -35,-29 -60,-66 -75,-109 -17,-51 -22,-110 -22,-163l0 -501c0,-91 14,-170 42,-235 239,-52 477,-115 707,-197 199,44 290,198 290,432l0 264 -379 0 0 -240c0,-82 -35,-121 -117,-121l-51 0c-82,0 -114,41 -114,121l0 405c0,20 2,58 18,73 25,22 57,41 84,58z"/>
  <path class="fil0" d="M1842 7773c-309,-142 -587,-303 -747,-442 -379,-332 -253,-741 -176,-1043 -298,290 -449,520 -522,919 -73,399 -42,646 -17,732 147,188 412,343 858,417 167,-209 377,-403 604,-581z"/>
  <path class="fil0" d="M3218 10286c-508,-193 -1006,-444 -1225,-719 -410,-517 -34,-705 247,-963 -1269,578 -1145,1468 -1145,1468 -35,-54 -65,-108 -92,-161 173,394 658,739 1856,870 75,-183 199,-347 359,-495z"/>
  <path class="fil0" d="M8364 7074c735,364 969,691 1035,903 487,-272 679,-470 712,-506 -45,-326 -658,-471 -1222,-536 -164,47 -363,98 -525,139z"/>
  <path class="fil0" d="M4948 11957c0,0 -1050,-239 -1435,-561 -259,-216 -151,-526 -52,-708 -549,334 -611,762 -629,844 107,375 803,484 1413,552 737,83 1367,10 1367,10l-664 -137z"/>
  <path class="fil1" d="M1095 10072c-106,-2008 4756,-2389 7276,-2994l-7 -3c162,-41 360,-92 525,-139l8 1c1314,-401 2902,-1598 2261,-3140 -972,1716 -6159,2028 -8451,3395 -1064,635 -2412,1631 -1611,2881z"/>
  <path class="fil1" d="M10116 7465c0,0 -647,771 -3235,1465 -1116,299 -4564,810 -4053,2617 289,-1820 4905,-1476 6543,-2568 1084,-723 745,-1514 745,-1514z"/>
  <path class="fil1" d="M9968 0c855,3433 -2527,4069 -5245,4632 -1279,265 -4047,1053 -4326,2573 -107,586 0,776 0,776 0,0 -527,-532 -366,-1274 477,-2196 3188,-3236 5436,-3834 1389,-370 3882,-1540 4501,-2874z"/>
  <path class="fil1" d="M6930 12006c-1449,506 -1573,205 -2804,690 -730,287 -909,1136 -909,1136 1109,-997 3929,-331 5012,-1933 211,-312 327,-640 163,-1059 -11,-27 -23,-55 -36,-83 0,0 16,411 -574,830 -203,144 -479,290 -851,420z"/>
  <path class="fil0" d="M5578 10175c1772,332 1875,542 2134,810 171,177 123,441 70,601 590,-419 574,-830 574,-830 13,28 25,56 36,83 0,0 -26,-274 -714,-503 -688,-229 -2099,-161 -2099,-161z"/>
  <path class="fil2" d="M4234 15826l-72 0 -116 490 -12 0 -8 -490 -56 0 -116 490 -12 0 -8 -490 -72 0 24 640 83 0 105 -421 13 421 83 0 165 -640zm-6 640l74 0 71 -640 -74 0 -71 640zm315 -640l-75 0 -71 640 74 0 51 -466 70 341 -14 124 74 0 71 -640 -74 0 -39 356 -66 -356zm204 640l163 0c61,0 100,-24 108,-88l48 -433c9,-79 -24,-119 -103,-119l-145 0 -71 640zm81 -65l56 -509 68 0c34,0 43,23 40,54l-46 419c-3,26 -22,36 -45,36l-72 0z"/>
  <path class="fil2" d="M5352 15988l74 0 6 -57c7,-67 -17,-105 -86,-105l-55 0c-69,0 -102,38 -109,105l-15 134c-1,13 -2,27 1,39 2,9 6,17 13,23 10,9 24,17 36,24l78 47c8,5 16,11 23,17 7,7 7,20 6,30l-12 111c-3,27 -18,45 -46,45l-15 0c-29,0 -44,-15 -41,-45l3 -29 -74 0 -3 26c-8,68 13,113 85,113l54 0c69,0 103,-36 110,-103l15 -139c1,-11 3,-34 -1,-44 -3,-7 -8,-14 -14,-19 -10,-9 -24,-17 -35,-24l-78 -45 0 0c-8,-5 -16,-11 -23,-17 -7,-7 -7,-20 -6,-30l12 -108c3,-29 20,-46 49,-46l14 0c30,0 43,17 40,46l-6 50zm380 -97l7 -65 -241 0 -7 65 84 0 -63 575 74 0 63 -575 84 0zm71 -65l-71 640 74 0 29 -264 65 0 28 264 69 0 -31 -269 5 -2c42,-17 55,-63 59,-102l18 -161c7,-65 -13,-105 -82,-105l-164 0zm39 315l28 -250 64 0c34,0 43,23 40,54l-16 141c-3,31 -18,54 -52,54l-64 0zm329 325l82 0c69,0 103,-37 110,-104l48 -431c7,-67 -17,-105 -86,-105l-84 0c-69,0 -102,38 -109,105l-48 431c-7,67 18,104 87,104zm28 -65c-29,0 -44,-15 -41,-45l46 -419c3,-29 21,-45 50,-45l41 0c29,0 44,15 41,45l-46 419c-3,27 -18,45 -46,45l-45 0zm398 -575l-84 0 -71 640 74 0 38 -427 13 -1 31 310 56 0 100 -310 12 1 -56 427 74 0 71 -640 -84 0 -132 411 -41 -411z"/>
 </g>
</svg>
