<?xml version="1.0" encoding="UTF-8"?>
<!DOCTYPE svg PUBLIC "-//W3C//DTD SVG 1.1//EN" "http://www.w3.org/Graphics/SVG/1.1/DTD/svg11.dtd">
<!-- Creator: CorelDRAW X6 -->
<svg xmlns="http://www.w3.org/2000/svg" xml:space="preserve" width="30px" height="30px" version="1.1" style="shape-rendering:geometricPrecision; text-rendering:geometricPrecision; image-rendering:optimizeQuality; fill-rule:evenodd; clip-rule:evenodd"
viewBox="0 0 1383 1383"
 xmlns:xlink="http://www.w3.org/1999/xlink">
 <defs>
  <style type="text/css">
   <![CDATA[
    .fil0 {fill:#4AEEBC}
   ]]>
  </style>
 </defs>
 <g id="Layer_x0020_1">
  <metadata id="CorelCorpID_0Corel-Layer"/>
  <path class="fil0" d="M251 675c37,-172 250,-254 426,-300 109,-29 304,-121 353,-225 67,269 -198,319 -411,363 -78,16 -225,57 -298,130 -6,24 -16,56 14,82 13,11 34,24 59,35 22,-17 46,-32 68,-46 180,-107 586,-132 662,-266 50,121 -74,215 -177,246 44,5 92,16 95,42 0,0 0,0 0,0 0,0 27,62 -58,119 -104,69 -360,65 -466,136 1,-1 2,-1 3,-2 -8,14 -16,39 4,55 30,25 113,44 113,44l52 11c0,0 -49,6 -107,-1 -48,-5 -102,-14 -111,-43 0,0 0,1 0,1 -6,-22 -5,-42 2,-60 -94,-10 -132,-37 -145,-68 -23,-46 -10,-86 18,-122 -35,-6 -56,-18 -67,-33 1,2 1,4 1,4 0,0 -41,-42 -29,-100zm173 149c0,0 0,0 0,0 0,0 0,0 0,0zm481 -120c-135,33 -357,57 -481,120 0,0 0,0 0,0 -22,20 -51,35 -19,75 17,22 56,41 96,56 69,-64 225,-90 287,-106 97,-26 159,-53 197,-75 -5,-17 -23,-42 -81,-71zm-54 255c54,18 56,39 56,39 13,33 4,59 -13,83 -85,126 -306,73 -393,152 0,0 14,-67 71,-89 97,-38 106,-14 220,-54 29,-10 51,-22 67,-33 4,-12 8,-33 -5,-47 -20,-21 -28,-38 -167,-64 0,0 111,-5 165,13zm533 -268c0,-382 -310,-692 -692,-692 -382,0 -692,310 -692,692 0,382 310,692 692,692 382,0 692,-310 692,-692z"/>
 </g>
</svg>
