<?xml version="1.0" encoding="UTF-8"?>
<!DOCTYPE svg PUBLIC "-//W3C//DTD SVG 1.1//EN" "http://www.w3.org/Graphics/SVG/1.1/DTD/svg11.dtd">
<!-- Creator: CorelDRAW X6 -->
<svg xmlns="http://www.w3.org/2000/svg" xml:space="preserve" width="27.2502in" height="4.25307in" version="1.1" style="shape-rendering:geometricPrecision; text-rendering:geometricPrecision; image-rendering:optimizeQuality; fill-rule:evenodd; clip-rule:evenodd"
viewBox="0 0 82552 12884"
 xmlns:xlink="http://www.w3.org/1999/xlink">
 <defs>
  <style type="text/css">
   <![CDATA[
    .fil0 {fill:#373435}
    .fil1 {fill:#4AEEBC}
   ]]>
  </style>
 </defs>
 <g id="Layer_x0020_1">
  <metadata id="CorelCorpID_0Corel-Layer"/>
  <path class="fil0" d="M1952 1794l0 3566 2215 0 0 1794 -2215 0 0 3936 2496 0 0 1794 -4448 0 0 -12884 4448 0 0 1794 -2496 0zm7672 4598l-905 6492 -2058 0 -1902 -12884 1940 0 1078 8531 1078 -8531 1552 0 1078 8531 1078 -8531 1940 0 -1902 12884 -2057 0 -921 -6492zm7868 -1207l1599 861c252,143 532,301 762,476 160,121 288,271 380,449 128,246 138,694 138,966l0 2689c0,1447 -697,2259 -2171,2259l-1037 0c-1555,0 -2154,-991 -2154,-2453l0 -765 1952 0 0 818c0,426 202,606 623,606l299 0c402,0 535,-224 535,-606l0 -2144c0,-102 -10,-300 -95,-375 -128,-112 -293,-214 -436,-301l-1596 -894c-260,-139 -557,-302 -786,-489 -182,-149 -308,-339 -384,-561 -90,-263 -113,-567 -113,-843l0 -2584c0,-1443 667,-2294 2154,-2294l1055 0c1487,0 2154,851 2154,2294l0 1363 -1952 0 0 -1240c0,-421 -179,-623 -606,-623l-264 0c-422,0 -588,211 -588,623l0 2091c0,103 10,300 95,375 127,111 292,213 436,301z"/>
  <path class="fil1" d="M32347 265l-1399 0 -2240 9456 -234 0 -151 -9456 -1085 0 -2240 9456 -234 0 -151 -9456 -1399 0 459 12354 1598 0 2032 -8131 255 8131 1598 0 3189 -12354zm-112 12354l1422 0 1365 -12354 -1422 0 -1365 12354zm6090 -12354l-1456 0 -1365 12354 1422 0 993 -8990 1347 6589 -265 2401 1422 0 1365 -12354 -1422 0 -760 6878 -1282 -6878zm3946 12354l3154 0c1173,0 1940,-464 2076,-1695l924 -8366c168,-1517 -454,-2293 -1987,-2293l-2803 0 -1365 12354zm1562 -1264l1086 -9826 1310 0c647,0 839,450 773,1046l-893 8085c-55,496 -415,695 -877,695l-1398 0z"/>
  <polygon class="fil1" points="77586,265 75963,265 74598,12619 76017,12619 76753,4373 76996,4346 77602,10334 78688,10334 80618,4346 80854,4373 79768,12619 81187,12619 82552,265 80929,265 78382,8192 "/>
  <path class="fil1" d="M63737 11355c-569,0 -856,-297 -792,-871l893 -8085c62,-566 401,-871 967,-871l791 0c569,0 855,297 792,871l-893 8085c-58,529 -345,871 -897,871l-861 0zm-544 1264l1582 0c1334,0 1985,-709 2129,-2012l918 -8313c143,-1296 -326,-2029 -1664,-2029l-1617 0c-1338,0 -1970,733 -2113,2029l-918 8313c-144,1303 350,2012 1684,2012z"/>
  <path class="fil1" d="M70148 6346l532 -4817 1240 0c647,0 839,450 773,1046l-301 2724c-66,597 -356,1046 -1004,1046l-1240 0zm-750 -6081l-1365 12354 1422 0 563 -5097 1259 0 544 5097 1327 0 -591 -5200 105 -44c805,-337 1057,-1216 1140,-1970l344 -3111c138,-1247 -260,-2029 -1577,-2029l-3172 0z"/>
  <polygon class="fil1" points="61276,1529 61415,265 56759,265 56620,1529 58237,1529 57011,12619 58434,12619 59659,1529 "/>
  <path class="fil1" d="M53936 3392l1422 0 121 -1098c143,-1296 -326,-2029 -1665,-2029l-1054 0c-1338,0 -1970,733 -2113,2029l-285 2584c-27,245 -40,524 15,757 41,175 121,324 252,441 195,175 463,330 695,462l1504 899c148,97 312,207 439,330 141,137 144,379 122,574l-237 2144c-58,529 -345,871 -897,871l-299 0c-569,0 -856,-297 -792,-871l61 -553 -1422 0 -55 500c-145,1313 243,2187 1647,2187l1037 0c1327,0 1983,-694 2127,-1994l297 -2689c24,-215 64,-650 -15,-844 -58,-143 -148,-262 -266,-360 -202,-167 -456,-320 -679,-455l-1507 -863 -3 -2c-148,-97 -312,-207 -439,-330 -141,-137 -144,-379 -122,-574l231 -2092c62,-560 380,-888 951,-888l264 0c574,0 835,320 773,888l-108 975z"/>
 </g>
</svg>
